<?xml version="1.0" encoding="UTF-8"?>
<svg version="1.1" xmlns="http://www.w3.org/2000/svg" width="1024" height="1024">
<path d="M0 0 C8.51058766 6.09925449 13.67302351 14.17903047 15.53125 24.4921875 C16.75706081 36.37574227 13.39384453 46.12557657 6.0390625 55.3671875 C0.08884947 61.97220866 -8.45651994 65.90766513 -17.28125 66.765625 C-28.69177802 67.12919575 -37.46025767 64.04848251 -45.84765625 56.23828125 C-50.46875 51.2608622 -50.46875 51.2608622 -50.46875 48.4921875 C-58.05875 48.8221875 -65.64875 49.1521875 -73.46875 49.4921875 C-74.12875 54.4421875 -74.78875 59.3921875 -75.46875 64.4921875 C-73.426875 64.7190625 -71.385 64.9459375 -69.28125 65.1796875 C-32.54132716 69.86708107 3.61980606 85.05071982 31.03369141 110.12988281 C32.42383764 111.39447622 33.84176652 112.62834345 35.26171875 113.859375 C43.48065189 121.02067798 50.59518514 129.10752857 57.53125 137.4921875 C58.89830078 137.0590625 58.89830078 137.0590625 60.29296875 136.6171875 C75.19773324 132.22204238 91.71631016 131.13816715 106.53125 136.4921875 C107.53285156 136.84410156 108.53445313 137.19601562 109.56640625 137.55859375 C116.64959031 140.27187412 122.552976 143.85405198 128.53125 148.4921875 C129.13324219 148.92917969 129.73523438 149.36617187 130.35546875 149.81640625 C144.26816356 160.61577075 152.24582031 177.77268259 155.09375 194.7890625 C157.75839695 217.34339565 151.68217555 238.1832445 137.75390625 255.96777344 C128.83788128 267.08431895 116.79686388 273.67834977 103.53125 278.4921875 C102.72429687 278.78867187 101.91734375 279.08515625 101.0859375 279.390625 C97.19670122 280.68703709 93.95706995 281.4850158 89.8203125 281.5546875 C85.62940559 281.68642524 82.44383817 281.95573735 78.53125 283.4921875 C75.4744379 287.81020179 73.95525725 292.32278191 72.30273438 297.31396484 C66.14304608 314.70533795 53.11998417 329.41016438 40.53125 342.4921875 C39.91507813 343.17152344 39.29890625 343.85085938 38.6640625 344.55078125 C17.88130898 366.76523557 -12.59857329 382.12862577 -41.46875 390.4921875 C-42.11553711 390.68506348 -42.76232422 390.87793945 -43.42871094 391.07666016 C-92.18733196 405.39466792 -147.49715246 398.12593233 -191.92749023 374.2019043 C-212.66314335 362.73135092 -232.04763304 347.38144274 -246.46875 328.4921875 C-247.19449219 327.58210938 -247.92023438 326.67203125 -248.66796875 325.734375 C-271.46875 296.52709151 -271.46875 296.52709151 -271.46875 282.4921875 C-272.005 282.53859375 -272.54125 282.585 -273.09375 282.6328125 C-290.77125718 283.44690823 -310.42234688 275.46547956 -323.5078125 263.8671875 C-335.22081705 252.97429691 -342.30968637 240.88771296 -346.46875 225.4921875 C-346.71367187 224.65558594 -346.95859375 223.81898438 -347.2109375 222.95703125 C-351.65783531 205.1998982 -348.21851371 184.72935882 -339.57421875 168.8046875 C-330.38572383 154.34857676 -318.4701676 143.86807369 -302.46875 137.4921875 C-301.73398437 137.17507813 -300.99921875 136.85796875 -300.2421875 136.53125 C-283.64252063 130.05802083 -265.69846411 132.26626365 -249.46875 138.4921875 C-249.20191406 137.91726563 -248.93507813 137.34234375 -248.66015625 136.75 C-242.93054857 125.89192381 -232.92639646 116.15699315 -223.46875 108.4921875 C-222.15583984 107.40550781 -222.15583984 107.40550781 -220.81640625 106.296875 C-188.35295105 80.30939864 -151.30849501 68.06404303 -110.46875 63.4921875 C-110.33823242 62.37247559 -110.20771484 61.25276367 -110.07324219 60.09912109 C-109.58249322 55.9261678 -109.0705164 51.75604281 -108.55224609 47.58642578 C-108.33131829 45.78503935 -108.11607324 43.98294616 -107.90673828 42.18017578 C-107.60397393 39.581568 -107.28053009 36.98622921 -106.953125 34.390625 C-106.82003937 33.19027115 -106.82003937 33.19027115 -106.68426514 31.96566772 C-105.9329916 26.24211565 -104.33510002 21.96541403 -99.80615234 18.05761719 C-95.52480171 15.70550922 -92.05539632 14.92334294 -87.09375 14.7421875 C-86.3912915 14.71326416 -85.68883301 14.68434082 -84.96508789 14.65454102 C-74.14268776 14.27611933 -63.29548373 14.40734872 -52.46875 14.4921875 C-52.16259766 13.70448975 -51.85644531 12.91679199 -51.54101562 12.10522461 C-47.91830179 3.27692175 -39.65100591 -1.31531962 -31.21875 -4.8828125 C-19.92713738 -6.76474794 -9.86894639 -6.0275527 0 0 Z " fill="#1D61B0" transform="translate(608.46875,312.5078125)"/>
<path d="M0 0 C0.99353485 0.00131424 0.99353485 0.00131424 2.00714111 0.00265503 C25.08842905 0.10329917 45.3800124 7.75508559 63.3125 22.375 C64.32957031 21.72144531 64.32957031 21.72144531 65.3671875 21.0546875 C67.32721787 19.80048524 69.29104805 18.55220944 71.2578125 17.30859375 C73.09379269 16.14643237 74.92395834 14.97489784 76.7421875 13.78515625 C97.6724512 0.50113367 124.8256029 -3.32250795 149.0625 1.6875 C151.15396256 2.21897755 153.23885034 2.7777889 155.3125 3.375 C156.11429688 3.5915625 156.91609375 3.808125 157.7421875 4.03125 C168.59523495 7.27557735 177.88035468 12.89938077 186.3125 20.375 C186.93769531 20.90609375 187.56289063 21.4371875 188.20703125 21.984375 C198.10460692 31.01060654 206.58019214 46.47522874 207.48950195 60.00952148 C208.02671626 86.19176318 208.02671626 86.19176318 203.3125 96.375 C203.03341797 97.0055127 202.75433594 97.63602539 202.46679688 98.28564453 C198.4781127 107.22630975 193.98944443 115.13033016 187.3125 122.375 C186.56355469 123.20386719 185.81460937 124.03273438 185.04296875 124.88671875 C177.88161398 132.44142742 169.24549761 139.84979567 159.3125 143.375 C159.45107422 143.9728833 159.58964844 144.5707666 159.73242188 145.18676758 C163.49379827 162.45931584 162.81543376 178.29451878 153.37890625 193.48828125 C151.46975907 196.23849522 149.47091379 198.81719468 147.3125 201.375 C146.78140625 202.00664063 146.2503125 202.63828125 145.703125 203.2890625 C136.30482873 213.4783045 124.02127056 219.46441385 111.3125 224.375 C110.28253906 224.77589844 109.25257813 225.17679688 108.19140625 225.58984375 C93.59966873 230.83653363 79.03864423 231.95766294 63.6875 231.875 C62.81020233 231.87323761 61.93290466 231.87147522 61.02902222 231.86965942 C47.29725012 231.80824455 34.37973746 230.94474835 21.3125 226.375 C20.5292334 226.10204102 19.7459668 225.82908203 18.93896484 225.54785156 C-0.24921774 218.63012148 -17.70811143 207.67400358 -27.6875 189.375 C-32.28698721 179.31023976 -33.3842305 170.33164893 -32.6875 159.375 C-32.60659119 157.94922893 -32.52586568 156.52344745 -32.4453125 155.09765625 C-32.2308352 151.52027432 -31.97128211 147.94761406 -31.6875 144.375 C-32.79544922 143.66537109 -32.79544922 143.66537109 -33.92578125 142.94140625 C-54.153946 129.75582999 -71.29275862 113.06676225 -77.8828125 89.08203125 C-81.73231485 70.03599679 -79.75959885 50.66204393 -69.5625 34.125 C-58.25441864 17.08809221 -40.67635298 5.37176278 -20.64453125 1.234375 C-13.77970563 0.07887439 -6.94818596 -0.01009273 0 0 Z " fill="#FCFDFD" transform="translate(447.6875,446.625)"/>
<path d="M0 0 C0.76038574 0.36528809 1.52077148 0.73057617 2.30419922 1.10693359 C26.69723259 12.90351864 49.51270726 29.60270562 69.109375 48.26171875 C71.77115351 50.78321434 74.49215067 53.20976692 77.25 55.625 C81.40104339 59.34685635 85.13836685 63.31027308 88.80859375 67.50390625 C90.19026054 69.07767645 91.59632401 70.63066128 93.03515625 72.15234375 C132.38424733 114.00212473 156.01601144 170.4864424 164.8125 226.6875 C164.91782043 227.35673492 165.02314087 228.02596985 165.13165283 228.71548462 C167.35590512 243.0225218 168.23832821 257.16483506 168.25 271.625 C168.25101212 272.7670137 168.25101212 272.7670137 168.25204468 273.93209839 C168.18564065 321.57977998 156.79757912 370.02802845 134 412 C133.5771875 412.79341797 133.154375 413.58683594 132.71875 414.40429688 C127.28693889 424.59665835 121.7616479 434.61498051 115 444 C114.56606934 444.60231445 114.13213867 445.20462891 113.68505859 445.82519531 C99.25758865 465.73163927 82.87687541 485.16587603 64 501 C63.45875488 501.45503906 62.91750977 501.91007813 62.35986328 502.37890625 C-1.12805408 555.52051864 -80.59446276 581.72104917 -163.26245117 574.98413086 C-240.027204 568.00133722 -314.79428709 531.04928803 -365 472 C-365.85722656 471.01902344 -366.71445312 470.03804687 -367.59765625 469.02734375 C-406.47816662 424.25333749 -430.1519697 368.56592613 -438 310 C-438.11859375 309.15920898 -438.2371875 308.31841797 -438.359375 307.45214844 C-441.9612679 281.13474646 -441.40550583 253.14757186 -437 227 C-436.73461426 225.39874268 -436.73461426 225.39874268 -436.46386719 223.76513672 C-433.939127 208.88922802 -430.64488874 194.35810966 -426 180 C-425.69642578 179.05398926 -425.39285156 178.10797852 -425.08007812 177.13330078 C-417.1325049 152.79085946 -406.16551626 129.35586724 -392 108 C-391.56123535 107.32759277 -391.1224707 106.65518555 -390.67041016 105.96240234 C-381.48125435 91.92555617 -371.0097751 78.99503519 -359.55859375 66.74609375 C-357.09350192 64.10035397 -354.70083 61.40243923 -352.3125 58.6875 C-349.10845724 55.12052142 -345.79513356 51.90539614 -342.12890625 48.8203125 C-339.70090762 46.74426229 -337.39224363 44.560672 -335.0625 42.375 C-324.26369722 32.5360908 -312.36356494 23.76385002 -300 16 C-298.99936523 15.36143066 -298.99936523 15.36143066 -297.97851562 14.70996094 C-260.25039599 -9.2488935 -218.27332393 -24.25448731 -174 -30 C-173.12214844 -30.11569336 -172.24429687 -30.23138672 -171.33984375 -30.35058594 C-112.53488424 -37.73407005 -52.93103359 -25.91159877 0 0 Z M-225 2 C-225.86657227 2.28713867 -226.73314453 2.57427734 -227.62597656 2.87011719 C-265.55558818 15.58664156 -299.09191231 36.17870093 -328.25390625 63.44140625 C-330.89964603 65.90649808 -333.59756077 68.29917 -336.3125 70.6875 C-339.90420181 73.9131685 -343.14567029 77.25173502 -346.25 80.9453125 C-347.4433423 82.34642422 -348.67486483 83.71568327 -349.9375 85.0546875 C-395.73063467 133.70989309 -420.52321455 203.4269719 -420.375 269.6875 C-420.37478851 270.57097107 -420.37457703 271.45444214 -420.37435913 272.36468506 C-420.31604877 297.00260807 -417.18102941 321.11913914 -411 345 C-410.76474609 345.91056152 -410.52949219 346.82112305 -410.28710938 347.75927734 C-401.92208535 379.21640265 -387.42325198 409.85500991 -368 436 C-367.58685547 436.56187012 -367.17371094 437.12374023 -366.74804688 437.70263672 C-363.91559858 441.5372151 -360.98853077 445.28614226 -358 449 C-357.18015625 450.02609375 -356.3603125 451.0521875 -355.515625 452.109375 C-341.99637438 468.61843582 -326.33563875 484.53087189 -309 497 C-307.79219111 497.91000664 -306.58653563 498.82287695 -305.3828125 499.73828125 C-247.22854489 543.68094764 -173.21904374 562.67576471 -101 554 C-85.10799759 551.74063928 -69.3778778 548.61960605 -54 544 C-53.28295898 543.78794922 -52.56591797 543.57589844 -51.82714844 543.35742188 C-10.65505863 530.99287675 31.01058054 507.69260084 60.73046875 476.2421875 C62 475 62 475 64 474 C64 473.34 64 472.68 64 472 C64.66 472 65.32 472 66 472 C66 471.34 66 470.68 66 470 C66.66 470 67.32 470 68 470 C69.50273886 468.55316948 69.50273886 468.55316948 71.0625 466.625 C73.74937105 463.45515833 76.49398472 460.36589155 79.3125 457.3125 C129.99530926 400.8276183 151.84149391 325.09547429 147.79785156 250.25878906 C143.0024264 187.70111061 117.15539925 127.87189602 74.58984375 81.8359375 C72.57195739 79.62630628 70.61324779 77.39006939 68.6640625 75.12109375 C65.12996291 71.07258792 61.36853767 67.34818749 57.4375 63.6875 C56.74350098 63.04014893 56.04950195 62.39279785 55.33447266 61.72583008 C48.84966255 55.74706861 42.08125271 50.2522663 35 45 C34.43603516 44.57912109 33.87207031 44.15824219 33.29101562 43.72460938 C11.41153013 27.48339494 -12.3667693 14.30950144 -38 5 C-39.10190674 4.59491211 -39.10190674 4.59491211 -40.22607422 4.18164062 C-99.1472169 -17.23461496 -165.60598912 -17.92169283 -225 2 Z " fill="#FAFCF7" transform="translate(648,240)"/>
<path d="M0 0 C8.51058766 6.09925449 13.67302351 14.17903047 15.53125 24.4921875 C16.75706081 36.37574227 13.39384453 46.12557657 6.0390625 55.3671875 C0.08884947 61.97220866 -8.45651994 65.90766513 -17.28125 66.765625 C-28.69177802 67.12919575 -37.46025767 64.04848251 -45.84765625 56.23828125 C-50.46875 51.2608622 -50.46875 51.2608622 -50.46875 48.4921875 C-58.05875 48.8221875 -65.64875 49.1521875 -73.46875 49.4921875 C-74.12875 54.4421875 -74.78875 59.3921875 -75.46875 64.4921875 C-73.426875 64.7190625 -71.385 64.9459375 -69.28125 65.1796875 C-32.54132716 69.86708107 3.61980606 85.05071982 31.03369141 110.12988281 C32.42383764 111.39447622 33.84176652 112.62834345 35.26171875 113.859375 C43.48065189 121.02067798 50.59518514 129.10752857 57.53125 137.4921875 C58.89830078 137.0590625 58.89830078 137.0590625 60.29296875 136.6171875 C75.19773324 132.22204238 91.71631016 131.13816715 106.53125 136.4921875 C107.53285156 136.84410156 108.53445313 137.19601562 109.56640625 137.55859375 C116.64959031 140.27187412 122.552976 143.85405198 128.53125 148.4921875 C129.13324219 148.92917969 129.73523438 149.36617187 130.35546875 149.81640625 C144.26816356 160.61577075 152.24582031 177.77268259 155.09375 194.7890625 C157.75839695 217.34339565 151.68217555 238.1832445 137.75390625 255.96777344 C128.83788128 267.08431895 116.79686388 273.67834977 103.53125 278.4921875 C102.72429687 278.78867187 101.91734375 279.08515625 101.0859375 279.390625 C97.19670122 280.68703709 93.95706995 281.4850158 89.8203125 281.5546875 C85.62940559 281.68642524 82.44383817 281.95573735 78.53125 283.4921875 C75.4744379 287.81020179 73.95525725 292.32278191 72.30273438 297.31396484 C66.14304608 314.70533795 53.11998417 329.41016438 40.53125 342.4921875 C39.91507813 343.17152344 39.29890625 343.85085938 38.6640625 344.55078125 C17.88130898 366.76523557 -12.59857329 382.12862577 -41.46875 390.4921875 C-42.11553711 390.68506348 -42.76232422 390.87793945 -43.42871094 391.07666016 C-92.18733196 405.39466792 -147.49715246 398.12593233 -191.92749023 374.2019043 C-212.66314335 362.73135092 -232.04763304 347.38144274 -246.46875 328.4921875 C-247.19449219 327.58210938 -247.92023438 326.67203125 -248.66796875 325.734375 C-271.46875 296.52709151 -271.46875 296.52709151 -271.46875 282.4921875 C-272.005 282.53859375 -272.54125 282.585 -273.09375 282.6328125 C-290.77125718 283.44690823 -310.42234688 275.46547956 -323.5078125 263.8671875 C-335.22081705 252.97429691 -342.30968637 240.88771296 -346.46875 225.4921875 C-346.71367187 224.65558594 -346.95859375 223.81898438 -347.2109375 222.95703125 C-351.65783531 205.1998982 -348.21851371 184.72935882 -339.57421875 168.8046875 C-330.38572383 154.34857676 -318.4701676 143.86807369 -302.46875 137.4921875 C-301.73398437 137.17507813 -300.99921875 136.85796875 -300.2421875 136.53125 C-283.64252063 130.05802083 -265.69846411 132.26626365 -249.46875 138.4921875 C-249.20191406 137.91726563 -248.93507813 137.34234375 -248.66015625 136.75 C-242.93054857 125.89192381 -232.92639646 116.15699315 -223.46875 108.4921875 C-222.15583984 107.40550781 -222.15583984 107.40550781 -220.81640625 106.296875 C-188.35295105 80.30939864 -151.30849501 68.06404303 -110.46875 63.4921875 C-110.33823242 62.37247559 -110.20771484 61.25276367 -110.07324219 60.09912109 C-109.58249322 55.9261678 -109.0705164 51.75604281 -108.55224609 47.58642578 C-108.33131829 45.78503935 -108.11607324 43.98294616 -107.90673828 42.18017578 C-107.60397393 39.581568 -107.28053009 36.98622921 -106.953125 34.390625 C-106.82003937 33.19027115 -106.82003937 33.19027115 -106.68426514 31.96566772 C-105.9329916 26.24211565 -104.33510002 21.96541403 -99.80615234 18.05761719 C-95.52480171 15.70550922 -92.05539632 14.92334294 -87.09375 14.7421875 C-86.3912915 14.71326416 -85.68883301 14.68434082 -84.96508789 14.65454102 C-74.14268776 14.27611933 -63.29548373 14.40734872 -52.46875 14.4921875 C-52.16259766 13.70448975 -51.85644531 12.91679199 -51.54101562 12.10522461 C-47.91830179 3.27692175 -39.65100591 -1.31531962 -31.21875 -4.8828125 C-19.92713738 -6.76474794 -9.86894639 -6.0275527 0 0 Z M-37.46875 11.4921875 C-38.07460938 12.05679687 -38.68046875 12.62140625 -39.3046875 13.203125 C-43.11475914 17.15629793 -43.88631994 19.93924641 -44.46875 25.4921875 C-45.63724487 25.48433228 -45.63724487 25.48433228 -46.8293457 25.47631836 C-65.74789259 25.33944729 -65.74789259 25.33944729 -84.65625 25.8671875 C-85.43202393 25.89804443 -86.20779785 25.92890137 -87.00708008 25.96069336 C-91.19325576 26.08405874 -91.19325576 26.08405874 -94.46875 28.4921875 C-94.97263049 30.61160615 -95.37351554 32.75591707 -95.72265625 34.90625 C-95.82829895 35.54915482 -95.93394165 36.19205963 -96.04278564 36.85444641 C-96.38174879 38.94063306 -96.70731157 41.02861903 -97.03125 43.1171875 C-97.14302582 43.82038116 -97.25480164 44.52357483 -97.3699646 45.24807739 C-98.96595356 55.30746504 -100.28691872 65.29310544 -100.46875 75.4921875 C-102.35980469 75.42257812 -102.35980469 75.42257812 -104.2890625 75.3515625 C-149.09034793 74.21790046 -190.74366258 93.88280536 -223.46875 123.4921875 C-224.35304688 124.29140625 -225.23734375 125.090625 -226.1484375 125.9140625 C-233.38745518 132.8061624 -240.22527409 140.94404552 -245.46875 149.4921875 C-245.46875 150.1521875 -245.46875 150.8121875 -245.46875 151.4921875 C-246.55414063 151.07066406 -247.63953125 150.64914062 -248.7578125 150.21484375 C-250.20301204 149.66116341 -251.64833091 149.10779445 -253.09375 148.5546875 C-253.80660156 148.27689453 -254.51945312 147.99910156 -255.25390625 147.71289062 C-268.2244605 142.77456034 -285.51732366 142.15805871 -298.46875 147.4921875 C-299.94021484 148.09546875 -299.94021484 148.09546875 -301.44140625 148.7109375 C-308.98353661 152.14351263 -314.66891639 156.62377478 -320.46875 162.4921875 C-321.190625 163.19214844 -321.9125 163.89210938 -322.65625 164.61328125 C-328.33892377 170.4789199 -331.52425665 176.92456439 -334.46875 184.4921875 C-334.81035156 185.31847656 -335.15195312 186.14476562 -335.50390625 186.99609375 C-341.14548037 203.34353877 -337.74957376 221.11123179 -331.1875 236.49609375 C-323.74150155 251.71277082 -309.66302083 263.12659564 -293.82421875 268.78515625 C-284.16305739 271.68510684 -274.4151197 272.64275392 -264.46875 270.4921875 C-264.33339844 271.0284375 -264.19804687 271.5646875 -264.05859375 272.1171875 C-257.42955273 296.25166018 -243.66064244 316.65300996 -226.46875 334.4921875 C-225.43234375 335.62333984 -225.43234375 335.62333984 -224.375 336.77734375 C-200.26073811 362.32918664 -166.10789652 377.01347916 -132.23706055 383.92700195 C-130.49301639 384.28307059 -128.75363607 384.6637035 -127.02270508 385.07885742 C-118.3284434 386.99532074 -109.54181578 386.8289585 -100.68334961 386.80786133 C-97.93627426 386.80472181 -95.19030072 386.82815167 -92.44335938 386.85351562 C-75.48841273 386.91410882 -59.70540492 384.33868902 -43.46875 379.4921875 C-42.293125 379.14542969 -41.1175 378.79867188 -39.90625 378.44140625 C-15.80948706 370.88520149 6.62913766 358.83028761 25.203125 341.62890625 C27.24224573 339.75743135 29.33290754 338.0003505 31.46875 336.2421875 C49.46382835 320.54202804 66.69910083 294.3366712 70.53125 270.4921875 C71.294375 270.6571875 72.0575 270.8221875 72.84375 270.9921875 C88.565358 273.12393096 103.15452516 268.71903522 116.53125 260.4921875 C120.15053205 257.73558363 123.36290834 254.75170446 126.53125 251.4921875 C127.16546875 250.87859375 127.7996875 250.265 128.453125 249.6328125 C140.2337132 237.43521233 144.84343925 219.70785482 144.98657227 203.18481445 C144.59943772 186.16437668 136.53792376 170.46542092 124.40625 158.8515625 C116.91149696 152.70097712 107.9943719 147.7686045 98.53125 145.4921875 C97.83128906 145.31171875 97.13132812 145.13125 96.41015625 144.9453125 C83.37519164 142.89367628 69.20959972 143.39831923 57.37890625 149.625 C55.53125 150.4921875 55.53125 150.4921875 52.53125 150.4921875 C50.875 148.5078125 50.875 148.5078125 49.03125 145.7421875 C44.38682384 139.11942259 39.10707593 133.3162984 33.53125 127.4921875 C32.64308594 126.55117188 31.75492188 125.61015625 30.83984375 124.640625 C4.3221259 97.23512329 -37.91544636 76.34325409 -76.43359375 75.39453125 C-78.40005859 75.41193359 -78.40005859 75.41193359 -80.40625 75.4296875 C-82.76041667 75.45052083 -85.11458333 75.47135417 -87.46875 75.4921875 C-87.34757813 74.65558594 -87.22640625 73.81898438 -87.1015625 72.95703125 C-86.6498178 69.81914309 -86.20314284 66.68058444 -85.75976562 63.54150391 C-85.56774874 62.18933129 -85.37377971 60.83743427 -85.17773438 59.48583984 C-84.15844881 52.44964916 -83.1782624 45.6091337 -83.46875 38.4921875 C-81.90253906 38.50958984 -81.90253906 38.50958984 -80.3046875 38.52734375 C-68.00032911 38.61796273 -55.75452213 38.14263108 -43.46875 37.4921875 C-43.3553125 38.2346875 -43.241875 38.9771875 -43.125 39.7421875 C-41.70010464 45.71317758 -37.47931162 50.20357297 -32.40625 53.4921875 C-25.8126698 56.75567669 -18.58647077 56.77614714 -11.625 54.60546875 C-4.46116053 51.35800537 1.23108507 46.13723579 4.05859375 38.63671875 C5.63785022 31.47133195 5.70096861 23.68375782 1.86328125 17.26953125 C-2.13960205 11.92844063 -6.22418637 8.04984111 -12.46875 5.4921875 C-21.99727709 4.21842585 -30.23910358 4.50865671 -37.46875 11.4921875 Z " fill="#F6F9F5" transform="translate(608.46875,312.5078125)"/>
<path d="M0 0 C2.38906714 2.13968644 4.21757875 4.34069627 6 7 C6.61681641 7.804375 6.61681641 7.804375 7.24609375 8.625 C11.5549432 15.30446213 11.1504849 24.37669348 10 32 C7.56029536 40.03143646 3.16893064 46.53960814 -4 51 C-11.32777934 54.78244388 -18.8161011 56.35175795 -27 55 C-36.55780869 51.85364062 -43.3555183 46.30536748 -48.375 37.62109375 C-52.07061244 29.62676546 -52.38860299 21.13012916 -49.5 12.8125 C-46.03379105 5.23321917 -40.64816959 -0.8240244 -33.0546875 -4.34375 C-21.480279 -8.04051925 -9.77208056 -7.39023789 0 0 Z " fill="#1D61B1" transform="translate(458,504)"/>
<path d="M0 0 C6.89194962 4.17978546 12.85193701 9.7674204 15.81640625 17.3828125 C18.10026107 27.00660324 17.12471188 36.87513137 12.03125 45.3359375 C7.35738544 51.97194332 0.64385508 57.57080333 -7.5625 59 C-18.19630921 59.86835658 -25.51431818 58.50289656 -33.8125 51.75 C-40.98855603 45.05997167 -44.50903276 37.52842506 -44.9375 27.6875 C-44.733022 18.90697396 -41.47023776 12.11405701 -35.5 5.7578125 C-26.14671508 -2.72803068 -11.70993494 -5.45243846 0 0 Z " fill="#1D61B1" transform="translate(599.5625,500)"/>
<path d="M0 0 C1.132718 2.48658571 1.08394103 3.70767047 0.328125 6.33984375 C-0.02765625 7.19707031 -0.3834375 8.05429687 -0.75 8.9375 C-6.48565584 23.82242001 -7.12388757 38.75526532 -7.60546875 54.51367188 C-7.64285156 55.59326172 -7.68023437 56.67285156 -7.71875 57.78515625 C-7.74904297 58.76363525 -7.77933594 59.74211426 -7.81054688 60.75024414 C-8 63 -8 63 -9 64 C-18.11368594 65.33743819 -26.27365936 62.49834881 -33.5859375 57.0859375 C-41.23612277 50.09656557 -45.01827643 42.00075085 -45.63867188 31.70288086 C-45.85774239 21.81951467 -43.48965349 14.28143347 -36.984375 6.62890625 C-27.04645055 -3.11240458 -12.6176666 -6.54249379 0 0 Z " fill="#FAFCFC" transform="translate(347,490)"/>
<path d="M0 0 C7.31287459 4.90318812 13.31460431 11.19175857 15.7265625 19.828125 C17.20035131 30.6043606 16.33201401 40.61212267 9.73828125 49.51171875 C5.32212426 54.76686929 1.17856141 58.45179992 -5.2734375 60.828125 C-6.2221875 61.240625 -7.1709375 61.653125 -8.1484375 62.078125 C-11.10952297 62.78878551 -13.44405391 62.90450923 -16.46875 62.875 C-17.36867676 62.86823242 -18.26860352 62.86146484 -19.19580078 62.85449219 C-19.8814209 62.84579102 -20.56704102 62.83708984 -21.2734375 62.828125 C-21.27230957 62.08578613 -21.27118164 61.34344727 -21.27001953 60.57861328 C-21.33625952 41.82117507 -22.22313017 22.78217155 -29.36157227 5.13867188 C-30.2734375 2.828125 -30.2734375 2.828125 -30.3359375 0.703125 C-28.93620481 -1.76699152 -27.24206805 -2.65881801 -24.61328125 -3.62109375 C-15.59780392 -5.74326788 -8.01268776 -4.52431446 0 0 Z " fill="#FBFDFC" transform="translate(706.2734375,491.171875)"/>
<path d="M0 0 C4.07140815 0.75396447 4.31565206 1.48845646 6.625 4.75 C13.88974745 14.89834238 26.52255785 18.93920594 38.38623047 21.21923828 C43.7948353 21.953522 49.20849157 21.95845235 54.65991211 21.94067383 C56.67422053 21.93752079 58.68704447 21.9610318 60.70117188 21.98632812 C75.4111495 21.99355662 91.60039455 19.15682346 103.375 9.625 C106.02988115 6.83831624 108.64565966 4.08368068 110.375 0.625 C113.25 0.5 113.25 0.5 116.375 0.625 C118.375 2.625 118.375 2.625 118.4375 5.75 C117.22399113 12.45916973 111.49256739 17.04387289 106.1875 20.8125 C85.07207317 33.98280012 55.54191139 36.38421328 31.5625 31.125 C18.81747948 27.99109944 6.38138323 21.86346184 -2.0625 11.6875 C-3.91243207 8.06163315 -4.01901863 5.64399006 -3.625 1.625 C-2.625 0.625 -2.625 0.625 0 0 Z " fill="#1F5EA6" transform="translate(454.625,606.375)"/>
<path d="M0 0 C0.66 0.66 1.32 1.32 2 2 C1.92468651 6.06692866 1.70904508 8.24924639 -1.125 11.25 C-5.87906771 14.14378035 -10.29781768 16.67084498 -16 16 C-17 15 -17 15 -17.5 12.4375 C-16.75986881 7.34909807 -13.75070025 4.38477827 -10 1 C-6.32850896 -1.25072248 -4.1815585 -1.09084135 0 0 Z " fill="#1F62AB" transform="translate(535,567)"/>
<path d="M0 0 C4.53234728 0.03260681 6.71523063 1.80446141 9.9296875 4.83203125 C12.29770294 7.4624484 13.34773957 8.9831595 13.5625 12.5625 C13.375 15.4375 13.375 15.4375 12.375 16.4375 C6.48045271 17.32168209 2.06122799 14.76472187 -2.625 11.4375 C-5.06269218 7.78096173 -4.86444439 5.74749899 -4.625 1.4375 C-3.625 0.4375 -3.625 0.4375 0 0 Z " fill="#1E60A9" transform="translate(491.625,566.5625)"/>
<path d="M0 0 C5.32943992 5.32943992 5.19342177 16.51981006 5.29296875 23.7109375 C5.27341629 26.26579207 5.23822434 28.82057419 5.1875 31.375 C5.17239296 32.70831784 5.15871542 34.04165267 5.14648438 35.375 C5.11160921 38.58351534 5.05782441 41.7918162 5 45 C8.96 45 12.92 45 17 45 C17 45.33 17 45.66 17 46 C14.72942623 46.05398987 12.45848712 46.09278742 10.1875 46.125 C8.29064453 46.15980469 8.29064453 46.15980469 6.35546875 46.1953125 C3 46 3 46 0 44 C-0.36076355 42.08908081 -0.36076355 42.08908081 -0.34057617 39.73388672 C-0.34034958 38.85312469 -0.34012299 37.97236267 -0.33988953 37.06491089 C-0.32440567 36.11278717 -0.30892181 35.16066345 -0.29296875 34.1796875 C-0.28872391 33.20589142 -0.28447906 32.23209534 -0.28010559 31.22879028 C-0.26327786 28.11058195 -0.22561811 24.99301383 -0.1875 21.875 C-0.17245846 19.76433223 -0.15876914 17.65365436 -0.14648438 15.54296875 C-0.11336109 10.36175977 -0.06312151 5.18092561 0 0 Z " fill="#18579F" transform="translate(680,509)"/>
<path d="M0 0 C0.66 0 1.32 0 2 0 C2 0.66 2 1.32 2 2 C5.87012442 2.90717302 9.4664977 3.12879559 13.4375 3.1328125 C14.66210938 3.13410156 15.88671875 3.13539063 17.1484375 3.13671875 C18.41945313 3.13285156 19.69046875 3.12898437 21 3.125 C22.90652344 3.13080078 22.90652344 3.13080078 24.8515625 3.13671875 C26.68847656 3.13478516 26.68847656 3.13478516 28.5625 3.1328125 C29.67753906 3.13168457 30.79257812 3.13055664 31.94140625 3.12939453 C34.74466698 3.01080192 37.2737424 2.63904595 40 2 C35.44044528 7.27198514 30.86352963 9.59948239 23.91015625 10.3203125 C15.04744652 10.63055905 9.15587314 8.88366708 1.9375 3.875 C1.298125 3.25625 0.65875 2.6375 0 2 C0 1.34 0 0.68 0 0 Z " fill="#1B5AA2" transform="translate(565,549)"/>
<path d="M0 0 C0.66 0 1.32 0 2 0 C2.56332031 0.97324219 3.12664062 1.94648437 3.70703125 2.94921875 C5.746306 5.49588002 6.82576315 5.96771761 10.09130859 6.57275391 C13.96181253 6.78025864 17.81331465 6.83626229 21.6875 6.8125 C24.33737846 6.83115444 26.98693498 6.86382847 29.63671875 6.89453125 C30.80936279 6.89300049 31.98200684 6.89146973 33.19018555 6.88989258 C36 7 36 7 38 8 C38 8.99 38 9.98 38 11 C30.34338471 14.53382244 22.89532996 15.72462593 14.7734375 12.86328125 C8.8676606 10.07159266 4.14642369 7.06785117 0 2 C0 1.34 0 0.68 0 0 Z " fill="#1756A0" transform="translate(413,545)"/>
<path d="M0 0 C1.78515625 1.38671875 1.78515625 1.38671875 3.78515625 4.38671875 C2.79515625 4.05671875 1.80515625 3.72671875 0.78515625 3.38671875 C-3.85520925 2.95876775 -8.50038854 2.74961742 -13.15576172 2.55444336 C-14.68862676 2.48459087 -16.22096748 2.40201145 -17.75244141 2.30639648 C-27.89003742 1.31325075 -27.89003742 1.31325075 -36.76171875 5.3828125 C-37.97601562 6.86974609 -37.97601562 6.86974609 -39.21484375 8.38671875 C-39.87484375 8.05671875 -40.53484375 7.72671875 -41.21484375 7.38671875 C-30.63553732 -4.72335549 -14.37396669 -8.21017309 0 0 Z " fill="#1E5BA0" transform="translate(602.21484375,501.61328125)"/>
<path d="M0 0 C0.86625 0.66 1.7325 1.32 2.625 2 C-0.78276477 4.27184318 -1.99829262 4.24679414 -5.99609375 4.23046875 C-7.09630859 4.22853516 -8.19652344 4.22660156 -9.33007812 4.22460938 C-11.05387695 4.20624023 -11.05387695 4.20624023 -12.8125 4.1875 C-13.95783203 4.18685547 -15.10316406 4.18621094 -16.28320312 4.18554688 C-25.56590691 4.13666195 -25.56590691 4.13666195 -29.375 3 C-29.375 2.34 -29.375 1.68 -29.375 1 C-21.06031827 -2.66824194 -8.1893102 -4.73941674 0 0 Z " fill="#215E9F" transform="translate(451.375,500)"/>
<path d="M0 0 C0.33 0 0.66 0 1 0 C1 9.57 1 19.14 1 29 C1.66 29.33 2.32 29.66 3 30 C2.34 30.66 1.68 31.32 1 32 C0.3490741 30.75264433 -0.29551669 29.50198168 -0.9375 28.25 C-1.29714844 27.55390625 -1.65679688 26.8578125 -2.02734375 26.140625 C-5.08539126 19.41046422 -5.11448805 11.27159208 -2.5625 4.375 C-1 1 -1 1 0 0 Z " fill="#16569F" transform="translate(559,513)"/>
<path d="M0 0 C0.86560547 0.00902344 1.73121094 0.01804687 2.62304688 0.02734375 C4.72798779 0.05060277 6.83278342 0.08645992 8.9375 0.125 C9.5975 1.445 10.2575 2.765 10.9375 4.125 C6.98653022 4.17439662 3.0356797 4.21071755 -0.91552734 4.23486328 C-2.9216136 4.24988107 -4.92761324 4.27528981 -6.93359375 4.30078125 C-8.19042969 4.30722656 -9.44726562 4.31367188 -10.7421875 4.3203125 C-11.90476074 4.33078613 -13.06733398 4.34125977 -14.26513672 4.35205078 C-17.0625 4.125 -17.0625 4.125 -19.0625 2.125 C-12.54853871 0.45542768 -6.70767871 -0.13529841 0 0 Z " fill="#2663A1" transform="translate(497.0625,387.875)"/>
<path d="M0 0 C6.93 0 13.86 0 21 0 C21.33 1.32 21.66 2.64 22 4 C18.5145007 5.06265223 15.25845793 5.166326 11.625 5.1875 C10.52414062 5.20167969 9.42328125 5.21585938 8.2890625 5.23046875 C4.88524724 4.99195913 2.17583814 4.21372666 -1 3 C-0.67 2.01 -0.34 1.02 0 0 Z " fill="#306BAC" transform="translate(574,554)"/>
<path d="M0 0 C0.495 0.99 0.495 0.99 1 2 C-3.2373434 3.0314249 -7.34401448 3.14542331 -11.6796875 3.1328125 C-12.41067657 3.13376923 -13.14166565 3.13472595 -13.89480591 3.13571167 C-15.43621914 3.1363899 -16.97763528 3.13456058 -18.51904297 3.13037109 C-20.86041796 3.12503324 -23.2015998 3.13032022 -25.54296875 3.13671875 C-27.04687542 3.1360576 -28.55078197 3.13477569 -30.0546875 3.1328125 C-30.74658173 3.13483673 -31.43847595 3.13686096 -32.15133667 3.13894653 C-36.54202561 3.11810413 -40.68038414 2.70717821 -45 2 C-45 1.67 -45 1.34 -45 1 C-40.6808321 0.85483086 -36.36158027 0.71256312 -32.04223633 0.57275391 C-30.57899523 0.52500992 -29.11577787 0.4765318 -27.65258789 0.42724609 C-18.4312927 0.11723343 -9.22817086 -0.07200914 0 0 Z " fill="#205994" transform="translate(536,696)"/>
<path d="M0 0 C-0.3125 1.9375 -0.3125 1.9375 -1 4 C-4.17545903 5.05848634 -6.54008796 5.16670878 -9.875 5.1875 C-10.90367187 5.20167969 -11.93234375 5.21585938 -12.9921875 5.23046875 C-16.05463488 4.99581369 -18.23248861 4.29184572 -21 3 C-20.67 2.01 -20.34 1.02 -20 0 C-13.16920852 -1.18225237 -6.87368733 -0.74464946 0 0 Z " fill="#2B67AA" transform="translate(447,554)"/>
<path d="M0 0 C1.66627298 0.03622333 3.33405374 0.04899842 5 0 C4.25 1.9375 4.25 1.9375 3 4 C-0.31736364 5.25440174 -3.32055883 4.91611232 -6.8125 4.6875 C-11.37361045 4.61492419 -13.78343223 4.97295616 -17.25 8 C-18.19563451 8.97265264 -19.1242882 9.96394661 -20 11 C-20.66 10.67 -21.32 10.34 -22 10 C-16.07545486 3.21820556 -9.44551696 -2.57605008 0 0 Z " fill="#2561A4" transform="translate(583,499)"/>
<path d="M0 0 C16.70842825 -0.3690205 16.70842825 -0.3690205 25 2 C25 2.66 25 3.32 25 4 C16.75 4 8.5 4 0 4 C0 2.68 0 1.36 0 0 Z " fill="#1D5B9D" transform="translate(520,388)"/>
<path d="M0 0 C2.90727495 0.06753965 5.78614906 0.19890487 8.6875 0.375 C10.49866461 0.47586027 12.30986405 0.57609663 14.12109375 0.67578125 C15.07483887 0.72943848 16.02858398 0.7830957 17.01123047 0.83837891 C22.08929222 1.11298084 27.16957282 1.33670324 32.25 1.5625 C34.13020905 1.64711956 36.01041744 1.73175356 37.890625 1.81640625 C39.26041365 1.87767165 40.63020407 1.93889751 42 2 C42 2.33 42 2.66 42 3 C25.5 3 9 3 -8 3 C-6 1 -6 1 -3.4375 0.9375 C-2.2309375 0.9684375 -2.2309375 0.9684375 -1 1 C-0.67 0.67 -0.34 0.34 0 0 Z " fill="#1B5696" transform="translate(483,677)"/>
<path d="M0 0 C-2.52467481 1.68311654 -4.17797787 2.50522214 -6.984375 3.40234375 C-8.14066406 3.77842773 -8.14066406 3.77842773 -9.3203125 4.16210938 C-10.12210938 4.41798828 -10.92390625 4.67386719 -11.75 4.9375 C-17.30169499 6.71677274 -22.67667188 8.61588915 -28 11 C-27.34 9.35 -26.68 7.7 -26 6 C-24.02 6 -22.04 6 -20 6 C-20.33 4.35 -20.66 2.7 -21 1 C-18.81274749 0.83011631 -16.62518299 0.66424731 -14.4375 0.5 C-12.61025391 0.36078125 -12.61025391 0.36078125 -10.74609375 0.21875 C-7.15365784 0.00897272 -3.59752457 -0.03704015 0 0 Z " fill="#1B5CA3" transform="translate(557,447)"/>
<path d="M0 0 C7.26 0 14.52 0 22 0 C21.67 0.66 21.34 1.32 21 2 C24.96 2.33 28.92 2.66 33 3 C33 3.33 33 3.66 33 4 C28.96151684 4.02481344 24.92306353 4.0429136 20.88452148 4.05493164 C19.51211778 4.05994454 18.13971938 4.06675658 16.76733398 4.07543945 C14.78892349 4.08763857 12.8104732 4.09272248 10.83203125 4.09765625 C9.04889526 4.10551147 9.04889526 4.10551147 7.22973633 4.11352539 C4.35262513 4.01239479 1.79326587 3.66550193 -1 3 C-0.67 2.01 -0.34 1.02 0 0 Z " fill="#3872B0" transform="translate(492,635)"/>
<path d="M0 0 C6.52307692 0.61538462 6.52307692 0.61538462 8.9375 2.5625 C9.288125 3.036875 9.63875 3.51125 10 4 C5.00087135 5.66637622 -0.20386251 5.1845647 -5.4375 5.1875 C-6.58283203 5.19974609 -7.72816406 5.21199219 -8.90820312 5.22460938 C-10.00970703 5.22654297 -11.11121094 5.22847656 -12.24609375 5.23046875 C-13.25341553 5.23457764 -14.2607373 5.23868652 -15.29858398 5.24291992 C-18.03169002 4.99715033 -19.66797046 4.40116137 -22 3 C-17.11341358 1.77835339 -12.89147115 2.28769201 -7.9375 2.84375 C-5.06851167 2.99635576 -2.77501277 2.69375319 0 2 C0 1.34 0 0.68 0 0 Z " fill="#18569D" transform="translate(444,499)"/>
<path d="M0 0 C2 1 2 1 2.62841797 2.75341797 C4.24146074 10.55435707 4.22742055 18.18346814 4.125 26.125 C4.11494282 27.47655581 4.10582184 28.82811893 4.09765625 30.1796875 C4.07427319 33.45331558 4.04150061 36.72655994 4 40 C3.67 40 3.34 40 3 40 C2.98018066 39.38479492 2.96036133 38.76958984 2.93994141 38.13574219 C2.84450273 35.34007458 2.73490045 32.5451349 2.625 29.75 C2.57859375 28.29787109 2.57859375 28.29787109 2.53125 26.81640625 C2.49257813 25.88183594 2.45390625 24.94726562 2.4140625 23.984375 C2.3826416 23.12553711 2.3512207 22.26669922 2.31884766 21.38183594 C1.9801881 18.85200235 1.15701781 17.24988415 0 15 C-0.13958857 12.37573495 -0.18931369 9.86707253 -0.125 7.25 C-0.11597656 6.55261719 -0.10695313 5.85523438 -0.09765625 5.13671875 C-0.07419888 3.42433042 -0.03833104 1.71211996 0 0 Z " fill="#316DA2" transform="translate(681,514)"/>
<path d="M0 0 C0.99 0.33 1.98 0.66 3 1 C2.28714844 1.4125 1.57429688 1.825 0.83984375 2.25 C-4.97019523 5.75322674 -9.48888795 9.12137885 -13.66015625 14.49609375 C-14.10230469 14.99238281 -14.54445313 15.48867188 -15 16 C-15.66 16 -16.32 16 -17 16 C-17 13.69 -17 11.38 -17 9 C-14.525 9.495 -14.525 9.495 -12 10 C-10.35173889 7.03312999 -9.55728913 4.34373475 -9 1 C-7.88625 1.020625 -6.7725 1.04125 -5.625 1.0625 C-2.16784079 1.26380718 -2.16784079 1.26380718 0 0 Z " fill="#1D5BA1" transform="translate(321,487)"/>
<path d="M0 0 C0.33 0.66 0.66 1.32 1 2 C1.66 2.33 2.32 2.66 3 3 C1.7934375 3.86625 1.7934375 3.86625 0.5625 4.75 C-2.12166909 6.66470502 -2.12166909 6.66470502 -2.4453125 8.9375 C-3.16794013 11.62445345 -4.30907251 12.48558928 -6.4375 14.25 C-7.15164063 14.84296875 -7.86578125 15.4359375 -8.6015625 16.046875 C-9.39304687 16.69140625 -10.18453125 17.3359375 -11 18 C-12.31097656 19.12148438 -12.31097656 19.12148438 -13.6484375 20.265625 C-14.52757812 21.00296875 -15.40671875 21.7403125 -16.3125 22.5 C-17.13363281 23.1909375 -17.95476563 23.881875 -18.80078125 24.59375 C-19.52652344 25.0578125 -20.25226562 25.521875 -21 26 C-21.99 25.67 -22.98 25.34 -24 25 C-23.45472656 24.59910156 -22.90945313 24.19820312 -22.34765625 23.78515625 C-13.31745075 16.97777057 -5.86128335 9.72283473 0 0 Z " fill="#2764A7" transform="translate(643,557)"/>
<path d="M0 0 C0 3 0 3 -1.6796875 5.04296875 C-2.76636719 6.10451172 -2.76636719 6.10451172 -3.875 7.1875 C-4.59429687 7.90292969 -5.31359375 8.61835938 -6.0546875 9.35546875 C-8 11 -8 11 -10 11 C-10.21785156 11.53109375 -10.43570312 12.0621875 -10.66015625 12.609375 C-12.49095438 15.87598856 -14.92096905 18.50707969 -17.4375 21.25 C-17.92798828 21.80429687 -18.41847656 22.35859375 -18.92382812 22.9296875 C-20.21815046 24.34802723 -21.60443175 25.68115689 -23 27 C-23.99 27 -24.98 27 -26 27 C-25.31035156 26.24976563 -24.62070312 25.49953125 -23.91015625 24.7265625 C-22.9609093 23.69273423 -22.0116928 22.65887799 -21.0625 21.625 C-20.56468018 21.08351318 -20.06686035 20.54202637 -19.55395508 19.98413086 C-16.39485551 16.54182601 -13.28179388 13.06338199 -10.1875 9.5625 C-7.00389855 6.00671492 -3.7806063 2.90815869 0 0 Z " fill="#E6F0DC" transform="translate(306,289)"/>
<path d="M0 0 C0.66 0 1.32 0 2 0 C2.33 0.66 2.66 1.32 3 2 C4.65 2 6.3 2 8 2 C8.33 4.31 8.66 6.62 9 9 C12.47147842 9.74957157 12.47147842 9.74957157 16 10 C16 11.98 16 13.96 16 16 C12.49512817 16 12.23770693 15.62095389 9.86328125 13.26171875 C9.28642578 12.68873047 8.70957031 12.11574219 8.11523438 11.52539062 C7.52033203 10.91888672 6.92542969 10.31238281 6.3125 9.6875 C5.70599609 9.09259766 5.09949219 8.49769531 4.47460938 7.88476562 C3.90162109 7.30791016 3.32863281 6.73105469 2.73828125 6.13671875 C2.21274658 5.60780029 1.68721191 5.07888184 1.14575195 4.53393555 C0 3 0 3 0 0 Z " fill="#215FA5" transform="translate(376,638)"/>
<path d="M0 0 C0.99 0 1.98 0 3 0 C3 0.66 3 1.32 3 2 C3.66 2.33 4.32 2.66 5 3 C-3.73139464 3.11624638 -12.31126982 2.89115181 -21 2 C-14.48364427 -1.43259852 -7.0998032 -2.0285152 0 0 Z " fill="#1E5CA1" transform="translate(548,677)"/>
<path d="M0 0 C0.66 0 1.32 0 2 0 C2.63922005 11.34615583 3.16938829 22.63216352 3 34 C2.67 34 2.34 34 2 34 C1.50070336 29.54995814 1.00431246 25.09965713 0.515625 20.6484375 C0.22744462 18.02641676 -0.07206195 15.40765077 -0.390625 12.7890625 C-0.91745713 8.28326141 -1.0610393 4.47994371 0 0 Z " fill="#12529B" transform="translate(654,488)"/>
<path d="M0 0 C5.61 0 11.22 0 17 0 C16 3 16 3 14.109375 3.94921875 C6.24325381 6.41063747 6.24325381 6.41063747 2 6 C5 4 5 4 9 4 C9 3.34 9 2.68 9 2 C6.03 2 3.06 2 0 2 C0 1.34 0 0.68 0 0 Z " fill="#1758A3" transform="translate(698,576)"/>
<path d="M0 0 C2 1 2 1 3.1171875 4.03515625 C4.20241006 8.19022071 4.22656797 12.16773885 4.125 16.4375 C4.11597656 17.16904297 4.10695313 17.90058594 4.09765625 18.65429688 C4.07436153 20.43634298 4.0385019 22.21821759 4 24 C3.34 24.33 2.68 24.66 2 25 C1.93941406 23.94941406 1.87882813 22.89882813 1.81640625 21.81640625 C1.38453527 14.51717848 0.90736046 7.25888365 0 0 Z " fill="#326DA6" transform="translate(749,501)"/>
<path d="M0 0 C4.27916606 1.49049604 5.98688439 4.59251002 8.1875 8.3125 C8.54263672 8.88162109 8.89777344 9.45074219 9.26367188 10.03710938 C11.2532681 13.32541736 12.51967285 16.17889001 13 20 C12.01 20.33 11.02 20.66 10 21 C10 20.34 10 19.68 10 19 C9.34 19 8.68 19 8 19 C8.12375 18.21625 8.2475 17.4325 8.375 16.625 C7.82266641 11.28577525 5.12509819 7.29903404 2 3 C1.34 2.67 0.68 2.34 0 2 C0 1.34 0 0.68 0 0 Z " fill="#2A69A7" transform="translate(736,477)"/>
<path d="M0 0 C0.804375 0.185625 1.60875 0.37125 2.4375 0.5625 C6.78253084 1.09610028 10.68989724 0.6225704 15 0 C15 0.66 15 1.32 15 2 C13.25 3.2890625 13.25 3.2890625 11 4.625 C10.2575 5.07101562 9.515 5.51703125 8.75 5.9765625 C7.88375 6.48316406 7.88375 6.48316406 7 7 C5.83040013 6.02433888 4.66438823 5.044375 3.5 4.0625 C2.8503125 3.51722656 2.200625 2.97195313 1.53125 2.41015625 C1.0259375 1.94480469 0.520625 1.47945313 0 1 C0 0.67 0 0.34 0 0 Z " fill="#1E5C9F" transform="translate(504,463)"/>
<path d="M0 0 C0.33 1.65 0.66 3.3 1 5 C0.2575 5.04125 -0.485 5.0825 -1.25 5.125 C-5.0823993 6.34439978 -5.94265777 8.66568673 -8 12 C-8.66 12 -9.32 12 -10 12 C-9.43063466 5.73698121 -6.537685 0 0 0 Z " fill="#1F5EA4" transform="translate(375,451)"/>
<path d="M0 0 C2.92822386 0.5955574 4.95510826 1.44682604 7.3828125 3.1796875 C8.29740234 3.83130859 8.29740234 3.83130859 9.23046875 4.49609375 C9.85566406 4.95113281 10.48085938 5.40617187 11.125 5.875 C11.75792969 6.32230469 12.39085937 6.76960938 13.04296875 7.23046875 C15.94912713 9.32216236 17.99591209 10.99386814 20 14 C17.50638429 12.79618552 15.31856917 11.54571278 13 10 C10.67612053 9.60612212 8.34206251 9.26513915 6 9 C6.66 7.68 7.32 6.36 8 5 C6.865625 4.731875 5.73125 4.46375 4.5625 4.1875 C3.386875 3.795625 2.21125 3.40375 1 3 C0.67 2.01 0.34 1.02 0 0 Z " fill="#1E5B9E" transform="translate(609,415)"/>
<path d="M0 0 C2.64 0.66 5.28 1.32 8 2 C8.33 3.32 8.66 4.64 9 6 C10.83983424 7.34231442 10.83983424 7.34231442 13.0625 8.25 C13.79597656 8.58515625 14.52945312 8.9203125 15.28515625 9.265625 C16.13400391 9.62914062 16.13400391 9.62914062 17 10 C16.67 11.32 16.34 12.64 16 14 C13.70400817 12.23454414 11.41321095 10.46299049 9.125 8.6875 C8.47402344 8.18798828 7.82304687 7.68847656 7.15234375 7.17382812 C6.52714844 6.68720703 5.90195312 6.20058594 5.2578125 5.69921875 C4.6817627 5.25408936 4.10571289 4.80895996 3.51220703 4.3503418 C2 3 2 3 0 0 Z " fill="#27619F" transform="translate(392,655)"/>
<path d="M0 0 C4.9723422 1.49170266 9.41845739 3.60457417 14 6 C14 6.33 14 6.66 14 7 C9.38 7 4.76 7 0 7 C0.33 6.34 0.66 5.68 1 5 C3.0625 4.375 3.0625 4.375 5 4 C2.525 3.01 2.525 3.01 0 2 C0 1.34 0 0.68 0 0 Z " fill="#1F5CA0" transform="translate(583,401)"/>
<path d="M0 0 C0 0.99 0 1.98 0 3 C0.66 3 1.32 3 2 3 C2 3.66 2 4.32 2 5 C1.236875 4.896875 0.47375 4.79375 -0.3125 4.6875 C-1.199375 4.790625 -2.08625 4.89375 -3 5 C-4.79031105 7.2332494 -4.79031105 7.2332494 -6 10 C-6.391875 10.763125 -6.78375 11.52625 -7.1875 12.3125 C-7.5896875 13.1478125 -7.5896875 13.1478125 -8 14 C-8.9375 11.5 -8.9375 11.5 -9 8 C-3.78136201 0 -3.78136201 0 0 0 Z " fill="#205CA2" transform="translate(574,323)"/>
<path d="M0 0 C0.33 0 0.66 0 1 0 C2.73244147 18.65886288 2.73244147 18.65886288 0 27 C-0.66 27.66 -1.32 28.32 -2 29 C-2.125 22.25 -2.125 22.25 -1 20 C-0.84876169 18.4804236 -0.75118307 16.95527498 -0.68359375 15.4296875 C-0.64169922 14.53378906 -0.59980469 13.63789062 -0.55664062 12.71484375 C-0.49766602 11.30912109 -0.49766602 11.30912109 -0.4375 9.875 C-0.39431641 8.93011719 -0.35113281 7.98523438 -0.30664062 7.01171875 C-0.20040928 4.67462908 -0.09836824 2.3374317 0 0 Z " fill="#2C68A3" transform="translate(655,510)"/>
<path d="M0 0 C0.99 0 1.98 0 3 0 C3.33 3.3 3.66 6.6 4 10 C3.67 9.34 3.34 8.68 3 8 C2.34 8 1.68 8 1 8 C1 8.99 1 9.98 1 11 C0.34 11 -0.32 11 -1 11 C-1.02688151 9.35425434 -1.04634123 7.70838587 -1.0625 6.0625 C-1.07410156 5.14597656 -1.08570313 4.22945313 -1.09765625 3.28515625 C-1 1 -1 1 0 0 Z " fill="#1B5AA3" transform="translate(673,488)"/>
<path d="M0 0 C0.66 0 1.32 0 2 0 C1.34 7.92 0.68 15.84 0 24 C-0.33 24 -0.66 24 -1 24 C-2.51708428 7.1070615 -2.51708428 7.1070615 0 0 Z " fill="#5D8BBB" transform="translate(415,592)"/>
<path d="M0 0 C2.35119399 3.52679099 2.21443452 5.02879485 2.125 9.1875 C2.10695313 10.27417969 2.08890625 11.36085938 2.0703125 12.48046875 C2.03550781 13.72763672 2.03550781 13.72763672 2 15 C1.01 15 0.02 15 -1 15 C-1.02715383 13.25008666 -1.04646551 11.50005055 -1.0625 9.75 C-1.07410156 8.77546875 -1.08570313 7.8009375 -1.09765625 6.796875 C-1.01195577 4.34241322 -0.70706066 2.33831086 0 0 Z " fill="#2A67AC" transform="translate(556,518)"/>
<path d="M0 0 C5.28 0 10.56 0 16 0 C13.6870518 2.3129482 12.52095125 2.49580975 9.375 3.125 C8.55773437 3.29257812 7.74046875 3.46015625 6.8984375 3.6328125 C5.95871094 3.81457031 5.95871094 3.81457031 5 4 C5 3.34 5 2.68 5 2 C3.35 2 1.7 2 0 2 C0 1.34 0 0.68 0 0 Z " fill="#15579F" transform="translate(408,448)"/>
<path d="M0 0 C0 0.99 0 1.98 0 3 C-1.98 3.99 -1.98 3.99 -4 5 C-4 6.32 -4 7.64 -4 9 C-7.3 9.66 -10.6 10.32 -14 11 C-9.85989729 6.45924219 -5.17609824 3.28157862 0 0 Z " fill="#2461A2" transform="translate(412,415)"/>
<path d="M0 0 C0.66 0 1.32 0 2 0 C2.680625 0.969375 3.36125 1.93875 4.0625 2.9375 C5.76274675 5.11402069 6.62595143 5.90021188 9.328125 6.62109375 C11.56272518 6.8494727 13.75433636 6.99021497 16 7 C15.34 8.32 14.68 9.64 14 11 C9.92760702 10.47315196 7.78401363 9.36950851 4.75 6.625 C4.06421875 6.01914062 3.3784375 5.41328125 2.671875 4.7890625 C1 3 1 3 0 0 Z " fill="#215F9D" transform="translate(413,545)"/>
<path d="M0 0 C0.66 0 1.32 0 2 0 C2.93838047 6.89836454 3.13645572 12.33928512 1 19 C0.67 19 0.34 19 0 19 C0 12.73 0 6.46 0 0 Z " fill="#15539C" transform="translate(368,488)"/>
<path d="M0 0 C0.66 0.33 1.32 0.66 2 1 C-3.28 6.28 -8.56 11.56 -14 17 C-14.66 16.67 -15.32 16.34 -16 16 C-11.39354968 10.45786445 -6.51046931 5.63685832 -1 1 C-0.67 0.67 -0.34 0.34 0 0 Z " fill="#E0EBD5" transform="translate(386,420)"/>
<path d="M0 0 C-0.33 1.65 -0.66 3.3 -1 5 C-5.455 5.495 -5.455 5.495 -10 6 C-10 5.01 -10 4.02 -10 3 C-3.375 -1.125 -3.375 -1.125 0 0 Z " fill="#1C5BA2" transform="translate(617,587)"/>
<path d="M0 0 C3.35212973 3.08748791 5.85053527 5.51708756 7 10 C6.625 12.3125 6.625 12.3125 6 14 C5.67 13.67 5.34 13.34 5 13 C4.34 14.32 3.68 15.64 3 17 C2.92652344 15.78763672 2.92652344 15.78763672 2.8515625 14.55078125 C2.73941406 12.94783203 2.73941406 12.94783203 2.625 11.3125 C2.55539062 10.25675781 2.48578125 9.20101562 2.4140625 8.11328125 C2.01239911 5.09322731 1.25930981 2.75921946 0 0 Z " fill="#2865A6" transform="translate(461,509)"/>
<path d="M0 0 C0.99 0 1.98 0 3 0 C3 5.94 3 11.88 3 18 C2.67 18 2.34 18 2 18 C1.67 15.03 1.34 12.06 1 9 C0.34 9 -0.32 9 -1 9 C-0.67 6.03 -0.34 3.06 0 0 Z " fill="#2B63A1" transform="translate(341,513)"/>
<path d="M0 0 C0.66 0 1.32 0 2 0 C2.05391993 1.79133978 2.09275571 3.58313899 2.125 5.375 C2.14820313 6.37273437 2.17140625 7.37046875 2.1953125 8.3984375 C2 11 2 11 0 13 C-0.33 11.35 -0.66 9.7 -1 8 C-1.66 8.66 -2.32 9.32 -3 10 C-3.3636198 5.75776898 -2.5393228 3.41831915 0 0 Z " fill="#1858A4" transform="translate(350,489)"/>
<path d="M0 0 C2.47352021 2.47352021 2.32672635 3.52129024 2.5625 6.9375 C2.77706165 9.91071147 3.05019358 12.15058074 4 15 C3.34 15 2.68 15 2 15 C2 15.66 2 16.32 2 17 C1.34 17 0.68 17 0 17 C0 11.39 0 5.78 0 0 Z " fill="#165AA7" transform="translate(608,334)"/>
<path d="M0 0 C1.485 0.99 1.485 0.99 3 2 C3.29296875 5.0390625 3.29296875 5.0390625 3.1875 8.625 C3.16042969 9.81351562 3.13335938 11.00203125 3.10546875 12.2265625 C3.07066406 13.14179688 3.03585937 14.05703125 3 15 C2.01 14.34 1.02 13.68 0 13 C-0.29296875 9.9609375 -0.29296875 9.9609375 -0.1875 6.375 C-0.16042969 5.18648438 -0.13335938 3.99796875 -0.10546875 2.7734375 C-0.07066406 1.85820312 -0.03585937 0.94296875 0 0 Z " fill="#326FB4" transform="translate(610,334)"/>
<path d="M0 0 C3.59905908 0.55550695 4.99909799 1.74887248 7.25 4.5625 C8.03117188 5.52349609 8.03117188 5.52349609 8.828125 6.50390625 C9.21484375 6.99761719 9.6015625 7.49132812 10 8 C9.01 8.495 9.01 8.495 8 9 C7.608125 8.505 7.21625 8.01 6.8125 7.5 C4.44908285 5.54406857 2.98564997 5.75792027 0 6 C0 4.02 0 2.04 0 0 Z " fill="#1C599F" transform="translate(600,322)"/>
<path d="M0 0 C0.66 0 1.32 0 2 0 C2.22262606 2.08185451 2.42757926 4.16560426 2.625 6.25 C2.74101563 7.41015625 2.85703125 8.5703125 2.9765625 9.765625 C2.99955595 12.93872091 2.69705154 14.38317244 1 17 C0.67 17 0.34 17 0 17 C0 11.39 0 5.78 0 0 Z " fill="#1858A1" transform="translate(672,584)"/>
<path d="M0 0 C-0.99 0.33 -1.98 0.66 -3 1 C-3 1.66 -3 2.32 -3 3 C-8.14089313 4.85072153 -10.95531271 5.21474076 -16 3 C-11.23513188 -0.17657874 -5.6216797 -0.17567749 0 0 Z " fill="#2266AE" transform="translate(447,498)"/>
<path d="M0 0 C0.66 0.33 1.32 0.66 2 1 C-2.29 5.29 -6.58 9.58 -11 14 C-11.66 13.67 -12.32 13.34 -13 13 C-11.58791833 11.39179588 -10.17013964 9.78859292 -8.75 8.1875 C-7.96109375 7.29417969 -7.1721875 6.40085937 -6.359375 5.48046875 C-4.34120555 3.35871775 -2.40083295 1.65745577 0 0 Z " fill="#E2EED8" transform="translate(289,459)"/>
<path d="M0 0 C1.62463842 -0.05395478 3.24978541 -0.09277195 4.875 -0.125 C5.77992188 -0.14820313 6.68484375 -0.17140625 7.6171875 -0.1953125 C10 0 10 0 12 2 C8.04 2.99 4.08 3.98 0 5 C0 4.34 0 3.68 0 3 C0.66 3 1.32 3 2 3 C2 2.34 2 1.68 2 1 C1.34 0.67 0.68 0.34 0 0 Z " fill="#2B6AB1" transform="translate(553,690)"/>
<path d="M0 0 C2 2 2 2 2.1875 5.875 C2.120382 8.71460774 1.90494365 11.28516905 1 14 C0.34 14 -0.32 14 -1 14 C-1.02685938 11.85423363 -1.04633088 9.70837355 -1.0625 7.5625 C-1.07410156 6.36753906 -1.08570313 5.17257812 -1.09765625 3.94140625 C-1 1 -1 1 0 0 Z " fill="#15569C" transform="translate(466,521)"/>
<path d="M0 0 C0 0.33 0 0.66 0 1 C-1.72814161 1.19672365 -3.45759197 1.38196799 -5.1875 1.5625 C-6.15042969 1.66691406 -7.11335937 1.77132812 -8.10546875 1.87890625 C-10.94233377 1.99758751 -13.25423671 1.67765639 -16 1 C-15.67 0.34 -15.34 -0.32 -15 -1 C-9.79948761 -2.19419173 -4.77424849 -2.70540748 0 0 Z " fill="#2968AC" transform="translate(538,636)"/>
<path d="M0 0 C1.4540625 0.0309375 1.4540625 0.0309375 2.9375 0.0625 C3.2675 1.0525 3.5975 2.0425 3.9375 3.0625 C2.7309375 3.495625 2.7309375 3.495625 1.5 3.9375 C-1.1951468 4.79512568 -1.1951468 4.79512568 -2.0625 7.0625 C-2.7225 7.0625 -3.3825 7.0625 -4.0625 7.0625 C-4.10504356 5.06295254 -4.10330783 3.06208364 -4.0625 1.0625 C-3.0625 0.0625 -3.0625 0.0625 0 0 Z " fill="#1C599D" transform="translate(455.0625,606.9375)"/>
<path d="M0 0 C1.98 0 3.96 0 6 0 C5.09066991 1.27609323 4.17217147 2.54565553 3.25 3.8125 C2.73953125 4.52019531 2.2290625 5.22789062 1.703125 5.95703125 C-0.02482358 8.02977691 -1.78526476 9.47375854 -4 11 C-3.35221646 7.50196889 -1.82822415 5.02054424 0 2 C0 1.34 0 0.68 0 0 Z " fill="#1D599F" transform="translate(648,632)"/>
<path d="M0 0 C0.99 0 1.98 0 3 0 C3.33 3.63 3.66 7.26 4 11 C0.91910327 8.22719294 -0.68775452 5.93673644 -2 2 C-1.34 1.34 -0.68 0.68 0 0 Z " fill="#1B599F" transform="translate(717,496)"/>
<path d="M0 0 C0 0.66 0 1.32 0 2 C-5.28 2 -10.56 2 -16 2 C-15.67 1.34 -15.34 0.68 -15 0 C-12.63671875 -0.44921875 -12.63671875 -0.44921875 -9.6875 -0.6875 C-8.72199219 -0.77386719 -7.75648438 -0.86023438 -6.76171875 -0.94921875 C-4.25179726 -0.99537006 -2.37671157 -0.75083762 0 0 Z " fill="#1558A4" transform="translate(575,398)"/>
<path d="M0 0 C-3.00198845 3.00198845 -4.95805953 3.95992537 -9.25 4.125 C-10.1575 4.08375 -11.065 4.0425 -12 4 C-12.33 3.01 -12.66 2.02 -13 1 C-11.39796533 0.63631108 -9.79325797 0.28438048 -8.1875 -0.0625 C-7.29417969 -0.25972656 -6.40085937 -0.45695313 -5.48046875 -0.66015625 C-3 -1 -3 -1 0 0 Z " fill="#2868A9" transform="translate(554,674)"/>
<path d="M0 0 C0.66 0 1.32 0 2 0 C2 4.62 2 9.24 2 14 C1.01 14 0.02 14 -1 14 C-0.67 9.38 -0.34 4.76 0 0 Z " fill="#15559F" transform="translate(350,584)"/>
<path d="M0 0 C0.66 0 1.32 0 2 0 C2.33 0.99 2.66 1.98 3 3 C0.69 5.31 -1.62 7.62 -4 10 C-4.33 8.68 -4.66 7.36 -5 6 C-2.6875 2.75 -2.6875 2.75 0 0 Z " fill="#326BAE" transform="translate(642,641)"/>
<path d="M0 0 C0 0.33 0 0.66 0 1 C-1.17755859 1.03867187 -1.17755859 1.03867187 -2.37890625 1.078125 C-9.0914785 1.44052154 -13.46823989 2.15181905 -19 6 C-19.99 6.495 -19.99 6.495 -21 7 C-20.9375 5.1875 -20.9375 5.1875 -20 3 C-13.75785622 -0.97227332 -7.18740448 -0.29181943 0 0 Z " fill="#C8DCE5" transform="translate(697,487)"/>
<path d="M0 0 C0 0.33 0 0.66 0 1 C-0.95261719 1.06058594 -1.90523437 1.12117188 -2.88671875 1.18359375 C-4.14097656 1.26738281 -5.39523437 1.35117187 -6.6875 1.4375 C-7.92886719 1.51871094 -9.17023437 1.59992188 -10.44921875 1.68359375 C-13.38180337 1.94491317 -16.13441617 2.34798379 -19 3 C-18.67 2.01 -18.34 1.02 -18 0 C-11.84098757 -1.23180249 -6.21324498 -0.73030908 0 0 Z " fill="#1D5A9D" transform="translate(698,486)"/>
<path d="M0 0 C0 0.33 0 0.66 0 1 C-5.94 0.67 -11.88 0.34 -18 0 C-18 -0.33 -18 -0.66 -18 -1 C-11.79070742 -2.55232315 -5.82761178 -2.91380589 0 0 Z " fill="#1F5B9B" transform="translate(345,487)"/>
<path d="M0 0 C0 0.66 0 1.32 0 2 C1.65 2 3.3 2 5 2 C5.33 2.66 5.66 3.32 6 4 C2.04 4 -1.92 4 -6 4 C-5.67 3.01 -5.34 2.02 -5 1 C-3 0 -3 0 0 0 Z " fill="#1D5BA0" transform="translate(435,404)"/>
<path d="M0 0 C-0.99 0.66 -1.98 1.32 -3 2 C-3 2.99 -3 3.98 -3 5 C-3.66 5 -4.32 5 -5 5 C-5.33 5.99 -5.66 6.98 -6 8 C-6.33 6.68 -6.66 5.36 -7 4 C-7.66 4 -8.32 4 -9 4 C-9 3.01 -9 2.02 -9 1 C-6.04335481 -0.4783226 -3.25770263 -0.06032783 0 0 Z " fill="#13539A" transform="translate(524,340)"/>
<path d="M0 0 C0.99 0.33 1.98 0.66 3 1 C2.34 1.66 1.68 2.32 1 3 C0.35232207 5.57061311 0.35232207 5.57061311 0 8 C1.65 8 3.3 8 5 8 C4.67 8.66 4.34 9.32 4 10 C2.33388095 10.042721 0.66617115 10.04063832 -1 10 C-2 9 -2 9 -2.1875 6.125 C-2 3 -2 3 0 0 Z " fill="#3771AD" transform="translate(520,573)"/>
<path d="M0 0 C0.66 0 1.32 0 2 0 C3.953125 5.859375 3.953125 5.859375 4 8 C2.68 9.32 1.36 10.64 0 12 C0 8.04 0 4.08 0 0 Z " fill="#1A5AA6" transform="translate(608,536)"/>
<path d="M0 0 C5.75 1.625 5.75 1.625 8 5 C5.03 5 2.06 5 -1 5 C-0.67 3.35 -0.34 1.7 0 0 Z " fill="#1A589D" transform="translate(409,587)"/>
<path d="M0 0 C2.13586678 3.20380017 2.23132175 4.01939967 2.125 7.6875 C2.10695313 8.49574219 2.08890625 9.30398438 2.0703125 10.13671875 C2.04710937 10.75160156 2.02390625 11.36648438 2 12 C1.01 12.33 0.02 12.66 -1 13 C-1.02708567 11.39592672 -1.04643483 9.7917215 -1.0625 8.1875 C-1.07410156 7.29417969 -1.08570313 6.40085937 -1.09765625 5.48046875 C-1 3 -1 3 0 0 Z " fill="#185395" transform="translate(341,519)"/>
<path d="M0 0 C4.29 0 8.58 0 13 0 C13 0.66 13 1.32 13 2 C9.37 2.33 5.74 2.66 2 3 C1.34 2.01 0.68 1.02 0 0 Z " fill="#1556A0" transform="translate(603,448)"/>
<path d="M0 0 C0 3 0 3 -1.609375 5.0078125 C-2.66898437 6.05582031 -2.66898437 6.05582031 -3.75 7.125 C-4.44609375 7.82882812 -5.1421875 8.53265625 -5.859375 9.2578125 C-7.99788242 10.99827657 -9.30910227 11.60000169 -12 12 C-8.32167983 7.47384007 -4.58913637 3.60575001 0 0 Z " fill="#DCEBCC" transform="translate(306,289)"/>
<path d="M0 0 C3.73487777 0.4979837 5.81237635 0.87491756 9 3 C9 3.66 9 4.32 9 5 C9.66 5.33 10.32 5.66 11 6 C7.80389448 6 6.58282374 5.45328458 3.8125 4 C3.09707031 3.62875 2.38164062 3.2575 1.64453125 2.875 C1.10183594 2.58625 0.55914062 2.2975 0 2 C0 1.34 0 0.68 0 0 Z " fill="#2A6AA6" transform="translate(491,455)"/>
<path d="M0 0 C8.57142857 -0.14285714 8.57142857 -0.14285714 12 1 C12 1.66 12 2.32 12 3 C13.32 3 14.64 3 16 3 C16 3.66 16 4.32 16 5 C10.72 3.68 5.44 2.36 0 1 C0 0.67 0 0.34 0 0 Z " fill="#E2F0D0" transform="translate(581,236)"/>
<path d="M0 0 C1.6045556 0.14148989 3.20863767 0.28835686 4.8125 0.4375 C5.70582031 0.51871094 6.59914063 0.59992187 7.51953125 0.68359375 C10 1 10 1 13 2 C13 2.66 13 3.32 13 4 C10.44855176 4.93045933 9.25993522 5.08564091 6.640625 4.22265625 C5.85171875 3.83980469 5.0628125 3.45695313 4.25 3.0625 C3.45078125 2.68222656 2.6515625 2.30195312 1.828125 1.91015625 C1.22484375 1.60980469 0.6215625 1.30945313 0 1 C0 0.67 0 0.34 0 0 Z " fill="#2E67A3" transform="translate(429,680)"/>
<path d="M0 0 C1.61725534 3.00950123 2.67582623 5.97103608 3.625 9.25 C3.88539063 10.14203125 4.14578125 11.0340625 4.4140625 11.953125 C4.60742188 12.62859375 4.80078125 13.3040625 5 14 C4.01 14 3.02 14 2 14 C0.4087311 9.126739 -0.21192221 5.19209404 0 0 Z " fill="#3670AC" transform="translate(415,621)"/>
<path d="M0 0 C0.99 0.33 1.98 0.66 3 1 C3.29296875 6.95703125 3.29296875 6.95703125 3 9 C2.01 9.99 1.02 10.98 0 12 C0 8.04 0 4.08 0 0 Z " fill="#2D69A9" transform="translate(339,528)"/>
<path d="M0 0 C1.50433594 0.01353516 1.50433594 0.01353516 3.0390625 0.02734375 C3.80992187 0.03894531 4.58078125 0.05054688 5.375 0.0625 C5.375 0.7225 5.375 1.3825 5.375 2.0625 C4.488125 2.041875 3.60125 2.02125 2.6875 2 C-0.55648737 1.94899166 -0.55648737 1.94899166 -3.375 2.6875 C-4.1175 2.81125 -4.86 2.935 -5.625 3.0625 C-6.285 2.4025 -6.945 1.7425 -7.625 1.0625 C-4.98041621 -0.25979189 -2.94738699 -0.03427194 0 0 Z " fill="#16579F" transform="translate(482.625,447.9375)"/>
<path d="M0 0 C0.66 0.33 1.32 0.66 2 1 C-1.63 4.63 -5.26 8.26 -9 12 C-9 7.8407692 -6.75316432 5.85455565 -4 3 C-1.6875 1.125 -1.6875 1.125 0 0 Z " fill="#E0ECCE" transform="translate(568,312)"/>
<path d="M0 0 C1.65322266 0.01740234 1.65322266 0.01740234 3.33984375 0.03515625 C4.99693359 0.04869141 4.99693359 0.04869141 6.6875 0.0625 C7.54214844 0.07410156 8.39679688 0.08570313 9.27734375 0.09765625 C8.94734375 0.75765625 8.61734375 1.41765625 8.27734375 2.09765625 C1.28092798 3.47400034 1.28092798 3.47400034 -2.22265625 2.16015625 C-2.71765625 1.80953125 -3.21265625 1.45890625 -3.72265625 1.09765625 C-2.72265625 0.09765625 -2.72265625 0.09765625 0 0 Z " fill="#1757A2" transform="translate(457.72265625,687.90234375)"/>
<path d="M0 0 C0 0.66 0 1.32 0 2 C-2.97 3.65 -5.94 5.3 -9 7 C-9 6.01 -9 5.02 -9 4 C-8.34 4 -7.68 4 -7 4 C-7 3.01 -7 2.02 -7 1 C-4 0 -4 0 0 0 Z " fill="#245EA3" transform="translate(620,664)"/>
<path d="M0 0 C0.66 0 1.32 0 2 0 C2 0.66 2 1.32 2 2 C5.96 2.99 5.96 2.99 10 4 C10 4.99 10 5.98 10 7 C5.61537866 6.49890042 3.1999003 5.01704885 0 2 C0 1.34 0 0.68 0 0 Z " fill="#245FA0" transform="translate(565,549)"/>
<path d="M0 0 C2.13586678 3.20380017 2.23132175 4.01939967 2.125 7.6875 C2.10695313 8.49574219 2.08890625 9.30398438 2.0703125 10.13671875 C2.03550781 11.05904297 2.03550781 11.05904297 2 12 C1.01 12.495 1.01 12.495 0 13 C0 10.36 0 7.72 0 5 C-0.66 4.67 -1.32 4.34 -2 4 C-1.34 2.68 -0.68 1.36 0 0 Z " fill="#185BA3" transform="translate(278,491)"/>
<path d="M0 0 C0.66 0 1.32 0 2 0 C2 2.64 2 5.28 2 8 C1.01 8 0.02 8 -1 8 C-1.625 5.6875 -1.625 5.6875 -2 3 C-1.34 2.01 -0.68 1.02 0 0 Z " fill="#195AA1" transform="translate(718,536)"/>
<path d="M0 0 C0 0.66 0 1.32 0 2 C-3.63 2.66 -7.26 3.32 -11 4 C-4.45754717 -1.33726415 -4.45754717 -1.33726415 0 0 Z " fill="#2663A5" transform="translate(584,661)"/>
<path d="M0 0 C0.66 0 1.32 0 2 0 C4 3 4 3 4 6 C2.35 6 0.7 6 -1 6 C-1.042721 4.33388095 -1.04063832 2.66617115 -1 1 C-0.67 0.67 -0.34 0.34 0 0 Z " fill="#19589F" transform="translate(305,538)"/>
<path d="M0 0 C2.97 0.495 2.97 0.495 6 1 C6.33 1.99 6.66 2.98 7 4 C4.21176345 5.0326802 3.1322726 5.04509293 0.25 4.0625 C-0.4925 3.711875 -1.235 3.36125 -2 3 C-1.34 2.67 -0.68 2.34 0 2 C0 1.34 0 0.68 0 0 Z " fill="#2967A7" transform="translate(481,449)"/>
<path d="M0 0 C-3.21182149 1.90608098 -5.53882603 2.22266247 -9.25 2.125 C-10.14203125 2.10695313 -11.0340625 2.08890625 -11.953125 2.0703125 C-12.96632813 2.03550781 -12.96632813 2.03550781 -14 2 C-8.7868679 -0.64982856 -5.8570138 -1.19802555 0 0 Z " fill="#376DA5" transform="translate(550,695)"/>
<path d="M0 0 C2 2 2 2 2.125 5.125 C2.08375 6.07375 2.0425 7.0225 2 8 C1.01 8.495 1.01 8.495 0 9 C-1.3950848 6.70221327 -2.07438619 5.5207033 -1.6875 2.8125 C-1 1 -1 1 0 0 Z " fill="#1659A3" transform="translate(654,537)"/>
<path d="M0 0 C1.65 0 3.3 0 5 0 C5 0.66 5 1.32 5 2 C6.32 2 7.64 2 9 2 C9 2.66 9 3.32 9 4 C6.69 4 4.38 4 2 4 C1.34 2.68 0.68 1.36 0 0 Z " fill="#1A5BA5" transform="translate(310,460)"/>
<path d="M0 0 C1.98 0 3.96 0 6 0 C2.82679218 3.53586014 0.83256305 5.58578031 -4 6 C-2.68 5.34 -1.36 4.68 0 4 C0 2.68 0 1.36 0 0 Z " fill="#245E9E" transform="translate(600,360)"/>
<path d="M0 0 C1.32 0 2.64 0 4 0 C3.50168276 3.68754757 2.89932357 5.60490662 0 8 C0 5.36 0 2.72 0 0 Z " fill="#225EA4" transform="translate(665,607)"/>
<path d="M0 0 C0.66 0 1.32 0 2 0 C2.04254356 1.99954746 2.04080783 4.00041636 2 6 C1 7 1 7 -2.0625 7.0625 C-3.5165625 7.0315625 -3.5165625 7.0315625 -5 7 C-4.67 6.34 -4.34 5.68 -4 5 C-2.68 5 -1.36 5 0 5 C0 3.35 0 1.7 0 0 Z " fill="#326CA9" transform="translate(503,576)"/>
<path d="M0 0 C0.66 0.33 1.32 0.66 2 1 C1.57847656 1.39832031 1.15695312 1.79664063 0.72265625 2.20703125 C0.17480469 2.73683594 -0.37304688 3.26664062 -0.9375 3.8125 C-1.48277344 4.33457031 -2.02804687 4.85664063 -2.58984375 5.39453125 C-4.23519092 7.05812198 -4.23519092 7.05812198 -5 10 C-5.99 10 -6.98 10 -8 10 C-6.34908222 5.70761377 -3.26245434 3.1206085 0 0 Z " fill="#125599" transform="translate(293,470)"/>
<path d="M0 0 C0.66 0 1.32 0 2 0 C2 2.64 2 5.28 2 8 C0.68 7.34 -0.64 6.68 -2 6 C-2.33 6.66 -2.66 7.32 -3 8 C-2.37240135 5.07120629 -1.41377341 2.63904371 0 0 Z " fill="#2969AD" transform="translate(523,351)"/>
<path d="M0 0 C1.98 0 3.96 0 6 0 C6 0.66 6 1.32 6 2 C4.68 2 3.36 2 2 2 C2.33 3.32 2.66 4.64 3 6 C2.01 5.67 1.02 5.34 0 5 C-0.33 4.01 -0.66 3.02 -1 2 C-0.67 1.34 -0.34 0.68 0 0 Z " fill="#1C5CA5" transform="translate(409,664)"/>
<path d="M0 0 C0 4.24645065 -1.81750806 6.38524772 -4 10 C-4.66 10 -5.32 10 -6 10 C-4.6302836 6.00499382 -2.74277578 3.19990508 0 0 Z " fill="#2B6AAB" transform="translate(416,506)"/>
<path d="M0 0 C1.32 1.32 2.64 2.64 4 4 C3.01 5.485 3.01 5.485 2 7 C1.01 7 0.02 7 -1 7 C-0.67 4.69 -0.34 2.38 0 0 Z " fill="#19569E" transform="translate(649,449)"/>
<path d="M0 0 C3.63 0 7.26 0 11 0 C10.67 0.99 10.34 1.98 10 3 C6.7 2.34 3.4 1.68 0 1 C0 0.67 0 0.34 0 0 Z " fill="#3873B3" transform="translate(454,690)"/>
<path d="M0 0 C0.66 0 1.32 0 2 0 C1.6875 3.375 1.6875 3.375 1 7 C0.01 7.66 -0.98 8.32 -2 9 C-1.41196203 5.97580475 -0.77321882 2.98241547 0 0 Z " fill="#316EAC" transform="translate(535,569)"/>
<path d="M0 0 C0.66 0 1.32 0 2 0 C2.66 2.97 3.32 5.94 4 9 C3.34 9 2.68 9 2 9 C-0.29013653 5.5647952 -0.17842973 4.014669 0 0 Z " fill="#3B73AC" transform="translate(369,533)"/>
<path d="M0 0 C-0.66 1.32 -1.32 2.64 -2 4 C-2.66 4 -3.32 4 -4 4 C-4 3.34 -4 2.68 -4 2 C-5.32 2.33 -6.64 2.66 -8 3 C-8.33 2.34 -8.66 1.68 -9 1 C-5.92677456 0.08941469 -3.19902639 -0.08886184 0 0 Z " fill="#1F63AF" transform="translate(588,499)"/>
<path d="M0 0 C0.66 0 1.32 0 2 0 C1.01 3.3 0.02 6.6 -1 10 C-1.33 10 -1.66 10 -2 10 C-1.85950482 8.52031676 -1.71245174 7.04125484 -1.5625 5.5625 C-1.48128906 4.73878906 -1.40007813 3.91507813 -1.31640625 3.06640625 C-1 1 -1 1 0 0 Z " fill="#E0EECE" transform="translate(798,609)"/>
<path d="M0 0 C3.99455527 0.61454696 6.74466336 2.70646737 10 5 C9.34 5.66 8.68 6.32 8 7 C8 6.34 8 5.68 8 5 C6.865625 4.731875 5.73125 4.46375 4.5625 4.1875 C3.386875 3.795625 2.21125 3.40375 1 3 C0.67 2.01 0.34 1.02 0 0 Z " fill="#2762A1" transform="translate(609,415)"/>
<path d="M0 0 C-0.33 0.99 -0.66 1.98 -1 3 C-5.455 3.495 -5.455 3.495 -10 4 C-7.02096266 1.02096266 -4.19714671 0 0 0 Z " fill="#336CAB" transform="translate(451,397)"/>
<path d="M0 0 C1.65 0 3.3 0 5 0 C5 1.32 5 2.64 5 4 C3.02 4 1.04 4 -1 4 C-0.67 2.68 -0.34 1.36 0 0 Z " fill="#235FA6" transform="translate(451,396)"/>
<path d="M0 0 C0.99 0.33 1.98 0.66 3 1 C3 1.66 3 2.32 3 3 C4.65 3.33 6.3 3.66 8 4 C8 4.99 8 5.98 8 7 C4.59679258 5.98823563 3.24274669 5.35156418 1.1875 2.375 C0.795625 1.59125 0.40375 0.8075 0 0 Z " fill="#2C65A5" transform="translate(568,357)"/>
<path d="M0 0 C3.24299151 2.38957269 5.50902342 4.2047869 7 8 C6.01 7.67 5.02 7.34 4 7 C4 6.34 4 5.68 4 5 C2.68 4.67 1.36 4.34 0 4 C0 2.68 0 1.36 0 0 Z " fill="#1D5A9D" transform="translate(424,643)"/>
<path d="M0 0 C-0.33 1.98 -0.66 3.96 -1 6 C-3 4.625 -3 4.625 -5 3 C-5 2.34 -5 1.68 -5 1 C-2 0 -2 0 0 0 Z " fill="#195398" transform="translate(376,632)"/>
<path d="M0 0 C0.66 0.66 1.32 1.32 2 2 C0.37660195 3.70884005 -1.29319053 5.37446717 -3 7 C-3.66 7 -4.32 7 -5 7 C-3.70700306 4.11562221 -2.34058637 2.12780579 0 0 Z " fill="#2767AD" transform="translate(715,541)"/>
<path d="M0 0 C-0.66 1.65 -1.32 3.3 -2 5 C-2.99 5 -3.98 5 -5 5 C-5 3.68 -5 2.36 -5 1 C-2 0 -2 0 0 0 Z " fill="#2967AD" transform="translate(382,475)"/>
<path d="M0 0 C0 0.99 0 1.98 0 3 C-2.31 3 -4.62 3 -7 3 C-7 2.34 -7 1.68 -7 1 C-4.53721199 -0.231394 -2.7204945 -0.07159196 0 0 Z " fill="#2462A6" transform="translate(312,461)"/>
<path d="M0 0 C0.66 0 1.32 0 2 0 C0.55746343 3.36591866 -1.33264727 5.51047079 -4 8 C-4 6.68 -4 5.36 -4 4 C-3.34 4 -2.68 4 -2 4 C-1.34 2.68 -0.68 1.36 0 0 Z " fill="#E2EDD2" transform="translate(751,696)"/>
<path d="M0 0 C3.68754757 0.49831724 5.60490662 1.10067643 8 4 C7.01 4.495 7.01 4.495 6 5 C3.98079663 3.69593116 1.98075027 2.36176581 0 1 C0 0.67 0 0.34 0 0 Z " fill="#2966A6" transform="translate(414,671)"/>
<path d="M0 0 C0.66 0.99 1.32 1.98 2 3 C1.01 3.99 0.02 4.98 -1 6 C-1.99 5.67 -2.98 5.34 -4 5 C-4 4.34 -4 3.68 -4 3 C-3.01 3 -2.02 3 -1 3 C-0.67 2.01 -0.34 1.02 0 0 Z " fill="#2F68AC" transform="translate(630,653)"/>
<path d="M0 0 C0.33 0.99 0.66 1.98 1 3 C1.99 3 2.98 3 4 3 C4 3.66 4 4.32 4 5 C3.34 5 2.68 5 2 5 C2 5.99 2 6.98 2 8 C1.34 8 0.68 8 0 8 C0 5.36 0 2.72 0 0 Z " fill="#1859A5" transform="translate(416,632)"/>
<path d="M0 0 C0.99 0 1.98 0 3 0 C5.10770759 2.88834003 6 4.38462395 6 8 C4.99403703 7.0479279 3.99538437 6.08812654 3 5.125 C2.443125 4.59132813 1.88625 4.05765625 1.3125 3.5078125 C0 2 0 2 0 0 Z " fill="#2B64A5" transform="translate(285,559)"/>
<path d="M0 0 C-0.66 1.32 -1.32 2.64 -2 4 C-3.65 2.68 -5.3 1.36 -7 0 C-3.86650268 -1.04449911 -3.01031744 -0.93423645 0 0 Z " fill="#2C66A3" transform="translate(711,490)"/>
<path d="M0 0 C0.33 0 0.66 0 1 0 C0.74438677 2.3431213 0.40729228 4.67843403 0 7 C-0.99 7.495 -0.99 7.495 -2 8 C-2.125 5.125 -2.125 5.125 -2 2 C-1.34 1.34 -0.68 0.68 0 0 Z " fill="#1156A2" transform="translate(511,379)"/>
<path d="M0 0 C0.99 0.495 0.99 0.495 2 1 C2 1.99 2 2.98 2 4 C1.34 4 0.68 4 0 4 C0 2.68 0 1.36 0 0 Z " fill="#C9DEAA" transform="translate(967,988)"/>
</svg>
